<mxfile host="65bd71144e">
    <diagram id="k-xai7atTR5beJjoOU-x" name="Page-1">
        <mxGraphModel dx="1049" dy="800" grid="1" gridSize="10" guides="1" tooltips="1" connect="1" arrows="1" fold="1" page="1" pageScale="1" pageWidth="850" pageHeight="1100" math="0" shadow="0">
            <root>
                <mxCell id="0"/>
                <mxCell id="1" parent="0"/>
                <mxCell id="2" value="SW Layers" style="shape=umlFrame;whiteSpace=wrap;html=1;width=120;height=30;boundedLbl=1;verticalAlign=middle;align=left;spacingLeft=5;" parent="1" vertex="1">
                    <mxGeometry x="140" y="150" width="540" height="440" as="geometry"/>
                </mxCell>
                <mxCell id="3" value="&lt;font style=&quot;font-size: 16px&quot;&gt;&lt;br&gt;nRF52840&lt;/font&gt;" style="html=1;align=center;verticalAlign=top;rounded=1;absoluteArcSize=1;arcSize=10;dashed=0;" parent="1" vertex="1">
                    <mxGeometry x="160" y="460" width="490" height="100" as="geometry"/>
                </mxCell>
                <mxCell id="4" value="S140&lt;br&gt;SoftDevice" style="html=1;dropTarget=0;" parent="1" vertex="1">
                    <mxGeometry x="490" y="480" width="140" height="60" as="geometry"/>
                </mxCell>
                <mxCell id="5" value="" style="shape=module;jettyWidth=8;jettyHeight=4;" parent="4" vertex="1">
                    <mxGeometry x="1" width="20" height="20" relative="1" as="geometry">
                        <mxPoint x="-27" y="7" as="offset"/>
                    </mxGeometry>
                </mxCell>
                <mxCell id="6" value="&lt;font style=&quot;font-size: 16px&quot;&gt;&lt;br&gt;nRF SDK 17.1.0&lt;/font&gt;" style="html=1;align=center;verticalAlign=top;rounded=1;absoluteArcSize=1;arcSize=10;dashed=0;" parent="1" vertex="1">
                    <mxGeometry x="160" y="380" width="490" height="70" as="geometry"/>
                </mxCell>
                <mxCell id="7" value="Middlelayer" style="html=1;align=center;verticalAlign=top;rounded=1;absoluteArcSize=1;arcSize=10;dashed=0;fontSize=16;" parent="1" vertex="1">
                    <mxGeometry x="160" y="250" width="490" height="120" as="geometry"/>
                </mxCell>
                <mxCell id="8" value="Location Service" style="html=1;dropTarget=0;fontSize=16;" parent="1" vertex="1">
                    <mxGeometry x="170" y="280" width="150" height="70" as="geometry"/>
                </mxCell>
                <mxCell id="9" value="" style="shape=module;jettyWidth=8;jettyHeight=4;fontSize=16;" parent="8" vertex="1">
                    <mxGeometry x="1" width="20" height="20" relative="1" as="geometry">
                        <mxPoint x="-27" y="7" as="offset"/>
                    </mxGeometry>
                </mxCell>
                <mxCell id="10" value="Beacon Manager" style="html=1;dropTarget=0;fontSize=16;" parent="1" vertex="1">
                    <mxGeometry x="335" y="280" width="155" height="70" as="geometry"/>
                </mxCell>
                <mxCell id="11" value="" style="shape=module;jettyWidth=8;jettyHeight=4;fontSize=16;" parent="10" vertex="1">
                    <mxGeometry x="1" width="20" height="20" relative="1" as="geometry">
                        <mxPoint x="-27" y="7" as="offset"/>
                    </mxGeometry>
                </mxCell>
                <mxCell id="12" value="GNSS Handler" style="html=1;dropTarget=0;fontSize=16;" parent="1" vertex="1">
                    <mxGeometry x="510" y="280" width="130" height="70" as="geometry"/>
                </mxCell>
                <mxCell id="13" value="" style="shape=module;jettyWidth=8;jettyHeight=4;fontSize=16;" parent="12" vertex="1">
                    <mxGeometry x="1" width="20" height="20" relative="1" as="geometry">
                        <mxPoint x="-27" y="7" as="offset"/>
                    </mxGeometry>
                </mxCell>
                <mxCell id="14" value="Main Loop" style="html=1;align=center;verticalAlign=top;rounded=1;absoluteArcSize=1;arcSize=10;dashed=0;fontSize=16;" parent="1" vertex="1">
                    <mxGeometry x="160" y="200" width="490" height="40" as="geometry"/>
                </mxCell>
            </root>
        </mxGraphModel>
    </diagram>
</mxfile>